<svg id="Ebene_1" data-name="Ebene 1" xmlns="http://www.w3.org/2000/svg" viewBox="0 0 161.62 17.67"><defs><style>.cls-1{fill:blue;}</style></defs><path class="cls-1" d="M18.7,12.7c0,1.89-.09,3-.08,4.85,0,.9-.32,1.59-1.31,1.56s-1.15-.8-1.08-1.68c.11-1.45.08-2.92.23-4.36.11-1-.3-1.3-1.21-1.25a5.35,5.35,0,0,1-1.6-.05c-2-.51-3,.47-3.64,2.12-.6,1.5-1.21,3-1.85,4.47-.33.79-.69,1.82-1.78,1.37s-.72-1.23-.47-2C7.68,12.26,11,7.73,14.4,3.21a2.29,2.29,0,0,1,2.42-1,2.13,2.13,0,0,1,1.71,2c.22,2.36.21,3.9.3,6.27A18.46,18.46,0,0,1,18.7,12.7ZM16.56,5l-.83-.19C14.32,7,12.88,8.47,12.92,8.88s.59.64.84.71a2.87,2.87,0,0,0,2-.09c.27-.08.76-.33.77-.52C16.59,7.64,16.56,6.3,16.56,5Z" transform="translate(-5.69 -2.16)"/><path class="cls-1" d="M123.84,14c-.48,1.3-.92,2.61-1.43,3.9-.35.91-.5,2.23-1.91,1.92s-1-1.51-.93-2.44c.08-1.69.2-3.39.4-5.08.19-1.52,1.06-1.81,2.28-.88a.92.92,0,0,0,.79.09c1.59-.71,2-.68,3,.57.37.47.58.53,1,.19a3,3,0,0,1,.8-.35c2.69-.89,4.18.14,4.22,3a12.71,12.71,0,0,1-.21,2.89c-.08.41-.66,1.06-.94,1a1.7,1.7,0,0,1-1.2-.94,18.23,18.23,0,0,1,0-2.45,5.47,5.47,0,0,0-.42-1.38c-.53.33-1.3.55-1.54,1a8.16,8.16,0,0,0-.54,2.54c-.12.87-.29,1.76-1.35,1.75s-1.17-1-1.26-1.82c-.12-1.16-.23-2.31-.34-3.47Z" transform="translate(-5.69 -2.16)"/><path class="cls-1" d="M67,14.48c-.19,1.29-.36,2.34-.49,3.39-.11.86-.46,1.57-1.43,1.47s-1.12-1-1-1.77C64.8,13.8,65.5,10,66.24,6.28c.14-.73.51-1.48,1.44-1.3s1,1,.83,1.85c-.24,1.27-.47,2.54-.74,4A8.65,8.65,0,0,0,71.51,8c.52-.65,1.11-1.26,1.93-.58s.42,1.48-.15,2c-1.22,1.22-2.54,2.34-4,3.63,2,.91,2.93,2.81,4.09,4.58.4.63.68,1.27,0,1.83s-1.38.18-1.87-.42a9.74,9.74,0,0,1-1-1.58A7.65,7.65,0,0,0,67,14.48Z" transform="translate(-5.69 -2.16)"/><path class="cls-1" d="M91.7,18.28a.53.53,0,0,0-.71-.16c-2.19,1.38-4.33.37-4.59-2.37a7.52,7.52,0,0,1,.69-3.63c.87-1.93,2.44-1.95,4.34-1.08s2.14,2.2,2,4a6.32,6.32,0,0,0,.75,2.72c.3.67.63,1.27-.06,1.81s-1.3.15-1.78-.39A8.24,8.24,0,0,1,91.7,18.28Zm-3.25-3.67c-.11,0-.09.35-.15.38a.92.92,0,0,0,.33.82,1,1,0,0,0,1.54-.61,6.39,6.39,0,0,0,0-.75c0-.06-.1-.77-.11-.83-.14-.93-.85-.86-1.13-.31-.09.19-.25.59-.34.78A4.35,4.35,0,0,0,88.45,14.61Z" transform="translate(-5.69 -2.16)"/><path class="cls-1" d="M35,13.3c1.22-1.11,2.36-2.08,3.9-1.41s1.6,2.21,1.69,3.61a11.67,11.67,0,0,1-.21,3.18,1.8,1.8,0,0,1-1.19,1.15c-.87.11-1-.66-1-1.4,0-1.21,0-2.42,0-3.63,0-.77-.44-.81-.92-.34a7.08,7.08,0,0,0-1.1,1.34c-.37.62-.64,1.31-1,2-.4.81-.66,1.9-1.87,1.67s-1.08-1.37-1-2.25c.11-1.79.28-3.58.51-5.36.09-.76.52-1.47,1.43-1.29s1,.91.82,1.72a3,3,0,0,0-.08.43C35,12.82,35,13,35,13.3Z" transform="translate(-5.69 -2.16)"/><path class="cls-1" d="M161.44,12.82a12.73,12.73,0,0,1,1.91-1c1.88-.65,3.41.08,3.76,2a24.3,24.3,0,0,1,.14,5,1.42,1.42,0,0,1-1,.94,1.45,1.45,0,0,1-1.09-.9c-.16-.88,0-1.83-.07-2.73a3.71,3.71,0,0,0-.11-.58,1.26,1.26,0,0,0-2-.72,2.46,2.46,0,0,0-.58.58,12.47,12.47,0,0,0-1.15,2.81c-.29.75-.59,1.53-1.59,1.38s-1.07-.9-1.07-1.67c0-1.64,0-3.29.05-4.93,0-.86.21-1.85,1.29-1.71C160.47,11.45,160.89,12.26,161.44,12.82Z" transform="translate(-5.69 -2.16)"/><path class="cls-1" d="M150,12.65a3.28,3.28,0,0,0,.34-.05c2.84-1.24,4.6-.22,4.83,2.9a18.21,18.21,0,0,1-.19,3c-.07.76-.38,1.38-1.26,1.26s-1.07-.85-1-1.65a20.24,20.24,0,0,0,.14-2.45,2,2,0,0,0-.31-.81.56.56,0,0,0-.71-.24,1.58,1.58,0,0,0-.71.47,15.21,15.21,0,0,0-1.23,2.29c-.2.43-.32.91-.5,1.36-.28.68-.79,1.32-1.51,1a2.1,2.1,0,0,1-1-1.53,18.3,18.3,0,0,1,.21-3.3c.13-1,.29-2,.5-2.92s.27-2.19,1.55-2c1.07.17,1.15,1,.89,1.93A3.24,3.24,0,0,0,150,12.65Z" transform="translate(-5.69 -2.16)"/><path class="cls-1" d="M142.38,18.35a.37.37,0,0,1,0,.11,1.28,1.28,0,0,1-1.58,1.33.43.43,0,0,1-.26-.17c-.63-1-1.16-.81-2.05-.37a2.82,2.82,0,0,1-3.7-1.87c-.49-1.44.06-3.93,1.31-4.79a4.79,4.79,0,0,1,2.53-.7c.72,0,1.38.33,2.21,0s1.32.43,1.31,1.28c0,.63-.13,1.25-.2,1.88C141.9,15.1,142.24,17.27,142.38,18.35Zm-3.53-3.27c.05-.47-.44-1-.74-.89-1,.22-1.05,1-1.11,1.77a1.62,1.62,0,0,0,.57,1.07C138.48,16.82,138.67,16.07,138.85,15.08Z" transform="translate(-5.69 -2.16)"/><path class="cls-1" d="M103.49,17.52c-3.39,3-5.41,1.17-5.75-1.88a13,13,0,0,1,.4-4,1.19,1.19,0,0,1,1.73-1c.84.37.72,1,.54,1.85a14,14,0,0,0-.25,3.24c0,.31.48.75.83.87s.69-.33.87-.62a15.36,15.36,0,0,0,1-2.1,8.72,8.72,0,0,1,.53-1.59,1.28,1.28,0,0,1,1.13-.49c.78,0,1.08.69,1,1.48a6,6,0,0,0-.17,1.86c.2,1,.66,1.95.93,2.94.14.5.31,1.26.06,1.51a1.72,1.72,0,0,1-1.52.14C104.12,19.47,104.23,18.05,103.49,17.52Z" transform="translate(-5.69 -2.16)"/><path class="cls-1" d="M24.36,13a.44.44,0,0,0,.5,0,10.42,10.42,0,0,1,1.59-1,2.17,2.17,0,0,1,3.18,1.31,9.9,9.9,0,0,1,0,5.73c-.08.33-.92.82-1.17.71a1.83,1.83,0,0,1-.93-1.24c-.09-1,.11-2,.11-3a2,2,0,0,0-.17-.71.45.45,0,0,0-.62-.23c-.24.13-.76.2-.89.4a22.63,22.63,0,0,0-1.15,2.72c-.21.43-.18,1-.47,1.36s-1,1-1.41.9a1.75,1.75,0,0,1-1-1.3c-.15-1.49-.09-3-.09-4.51,0-.8.06-1.73,1-1.81C23.33,12.18,23.82,12.62,24.36,13Z" transform="translate(-5.69 -2.16)"/><path class="cls-1" d="M112.8,13.74c.56.38,1,.66,1.42,1a3,3,0,0,1,1.18,3.48,2.27,2.27,0,0,1-2.31,1.64,3.4,3.4,0,0,1-3.33-1.89,1.58,1.58,0,0,1,.27-1.39,1.65,1.65,0,0,1,1.4.05c.54.24.81,1.15,1.67.64-.4-.44-.76-.92-1.19-1.33s-.86-.63-1.25-1a2.55,2.55,0,0,1-.89-3.11,3.13,3.13,0,0,1,2.86-2.14,4.73,4.73,0,0,1,2.68,1,1.1,1.1,0,0,1,0,1.45c-.65.77-2.08.07-2.5.26A.86.86,0,0,0,112.8,13.74Z" transform="translate(-5.69 -2.16)"/><path class="cls-1" d="M46.45,16.44a3.85,3.85,0,0,0,3.44.93c.76-.19,1.53-.3,1.79.64s-.45,1.38-1.23,1.65c-1.68.58-5.12-.32-6.14-1.75a3.65,3.65,0,0,1-.68-2.13,5.47,5.47,0,0,1,2.3-4.28,4.28,4.28,0,0,1,2.36-.74A2.29,2.29,0,0,1,50.69,13a3.8,3.8,0,0,1-3,3.48A8.82,8.82,0,0,1,46.45,16.44Zm2-3.41-.34,0a1.24,1.24,0,0,0-1.3.71l-.12.24a.36.36,0,0,0,.09.45c.43.3,1.44-.1,1.75-.45C49,13.36,48.58,13.08,48.43,13Z" transform="translate(-5.69 -2.16)"/><path class="cls-1" d="M77.07,15.69a.49.49,0,0,1,0-.17c.56-3,1.1-5.94,1.7-8.9.14-.71.54-1.32,1.41-1.15s1,.9.84,1.61c-.39,2.24-.84,4.48-1.25,6.72-.09.48-.17,1-.22,1.44-.17,1.91.23,2.32,2.1,2,.73-.14,1.31,0,1.52.68.26.88-.35,1.37-1.06,1.65a3.56,3.56,0,0,1-5-2.79C77.09,16.52,77.09,15.9,77.07,15.69Z" transform="translate(-5.69 -2.16)"/></svg>