<svg id="Ebene_1" data-name="Ebene 1" xmlns="http://www.w3.org/2000/svg" viewBox="0 0 29.69 29.69"><defs><style>.cls-1{fill:blue;}.cls-2{fill:#fff;}</style></defs><circle class="cls-1" cx="14.85" cy="14.85" r="14.85"/><path class="cls-2" d="M20.88,16.26c.89-.26,1.88-.76,2.56-.88,1.17-.22,2.35.17,2.13,1.08-.17.71-.34.67-1.21,1.16-.57.31-1.27.58-1.71.79s-1.27.25-1.58.72a22.12,22.12,0,0,0,2,1.26c.43.16.79.35,1.18.53a2.5,2.5,0,0,1,1.31,1.22A2,2,0,0,1,24,23.54c-1.13.05-2.42-1.7-3.57-1.88-.47-.08-.5,1.11-.94,1.23-1.45.39-2.6-.19-2.36-1.75.37-2.43.88-4.84,1.25-7.27.29-1.9.49-3.82.66-5.74.09-.93.37-1.68,1.4-1.67a1.42,1.42,0,0,1,1.39,1.69c-.08,1.75-.3,3.49-.48,5.23C21.31,14.12,21,15.38,20.88,16.26Z" transform="translate(-1.15 -1.15)"/><path class="cls-2" d="M12.58,21.87l-.79.66a3,3,0,0,1-3.53.68,3.06,3.06,0,0,1-1.83-3.14A13,13,0,0,1,8,15.51c1-1.61,2.47-1.74,4.15-.93a2.3,2.3,0,0,0,1.48.17c1.33-.37,2.24.26,2.1,1.63-.08.81-.42,1.59-.48,2.4a5.42,5.42,0,0,0,.18,2.2c.28.84.56,1.61-.31,2.18s-1.54,0-2.08-.65C12.86,22.33,12.74,22.12,12.58,21.87Zm-.74-4.79c-.24-.5-1.36-.3-1.69-.16A8.67,8.67,0,0,0,9,19.4c-.1.36.09,1,.56,1.15a2.45,2.45,0,0,0,1.12-.5C11.47,19.4,11.69,18,11.84,17.08Z" transform="translate(-1.15 -1.15)"/></svg>